<?xml version="1.0" encoding="UTF-8"?><svg id="a" xmlns="http://www.w3.org/2000/svg" viewBox="0 0 750 750"><defs><style>.d{fill:#ffb200;}.e{fill:#f7943f;}.f{fill:#fa848c;}.g{fill:#68a451;}.h{fill:#017eff;}.i{fill:none;}.j{fill:#58a7d7;}.k{fill:#ebe164;}</style></defs><rect class="i" width="750" height="750"/><g id="b"><path class="d" d="M310.58,417c-.16-1.07-.08-2.19,.21-3.27,.02-.08,.06-.15,.08-.23,.09-1.22,.65-2.35,1.52-3.2,.47-.83,1.02-1.58,1.64-2.18,.6-.57,1.26-1.05,1.96-1.45v-66.19c0-.56-.03-1.13-.08-1.7-.25-3.54-1.3-6.85-2.96-9.78-.18-.24-.38-.45-.55-.71-.22-.32-.4-.66-.58-1.01-2.92-4.23-7.15-7.48-12.18-9.06l.06-.11L68.48,210.3c-11.01-5.13-24.1-.37-29.23,10.64l-14.44,30.96c-5.14,11.01-.37,24.1,10.64,29.24l216.94,101.14,39.62-17.87v52.59h18.58Z"/></g><g id="c"><path class="h" d="M438.95,341c.16,1.07,.08,2.19-.21,3.27-.02,.08-.06,.15-.08,.23-.09,1.22-.65,2.35-1.52,3.2-.47,.83-1.02,1.58-1.64,2.18-.6,.57-1.26,1.05-1.96,1.45v66.19c0,.56,.03,1.13,.08,1.7,.25,3.54,1.3,6.85,2.96,9.78,.18,.24,.38,.45,.55,.71,.22,.32,.4,.66,.58,1.01,2.92,4.23,7.15,7.48,12.18,9.06l-.06,.11,231.23,107.81c11.01,5.13,24.1,.37,29.23-10.64l14.44-30.96c5.14-11.01,.37-24.1-10.64-29.24l-216.94-101.14-39.62,17.87v-52.59h-18.58Z"/><path class="j" d="M433.53,410.85v-66.85c-.04-10.53,5.99-20.6,16.21-25.2l234.44-105.82c11.08-5,24.11-.07,29.1,11l13.67,30.3c5,11.07,.07,24.1-11,29.1l-218.8,98.77-40.12,18.1,.03,.09-21.21,9.39-.32,.14h0l-2,.98Z"/><path class="e" d="M382,173.5v27.06l-6.85,5.74-6.15-5.16v-27.64c0-3.59,2.91-6.5,6.5-6.5,1.8,0,3.42,.73,4.6,1.9,1.17,1.18,1.9,2.8,1.9,4.6Z"/><polygon class="e" points="382 215.05 382 220.53 375.15 226.28 369 221.12 369 214.47 375.15 209.3 382 215.05"/><path class="e" d="M382,235.02v25.48c0,3.59-2.91,6.5-6.5,6.5s-6.5-2.91-6.5-6.5v-26.07l6.15-5.15,6.85,5.74Z"/><path class="f" d="M374,208.02l-6.15,5.17-3.96,3.32-25.07-21.03c-2.75-2.31-3.11-6.41-.8-9.16,1.29-1.53,3.13-2.32,4.98-2.32,1.48,0,2.96,.5,4.18,1.52l20.5,17.2,.17,.14,6.15,5.16Z"/><path class="f" d="M412.48,249.23c-1.29,1.53-3.13,2.32-4.98,2.32-1.48,0-2.96-.5-4.18-1.52l-20.02-16.8-6.85-5.74,6.85-5.75,3.27-2.74,25.11,21.07c2.75,2.31,3.11,6.41,.8,9.16Z"/><polygon class="f" points="385.27 217.79 382 220.53 375.15 226.28 369 221.12 369 214.47 375.15 209.3 382 215.05 385.27 217.79"/><path class="g" d="M413.34,191.2c0,1.85-.79,3.69-2.32,4.98l-25.75,21.61-3.27-2.74-6.85-5.75,6.85-5.74,20.66-17.34c2.75-2.31,6.85-1.95,9.16,.8,1.02,1.22,1.52,2.7,1.52,4.18Z"/><path class="g" d="M375.15,226.28l-6.15,5.15-20.03,16.81c-2.75,2.31-6.85,1.95-9.16-.8-1.02-1.22-1.52-2.7-1.52-4.18,0-1.85,.79-3.69,2.32-4.97l24.43-20.5,3.96-3.32v6.65l6.15,5.16Z"/><polygon class="g" points="385.27 217.79 382 220.53 375.15 226.28 369 221.12 369 214.47 375.15 209.3 382 215.05 385.27 217.79"/></g><path class="k" d="M316,347.15v66.85c.04,10.53-5.99,20.6-16.21,25.2l-234.44,105.82c-11.08,5-24.11,.07-29.1-11l-13.67-30.3c-5-11.07-.07-24.1,11-29.1l218.8-98.77,40.12-18.1-.03-.09,21.21-9.39,.32-.14h0l2-.98Z"/></svg>